<svg xmlns="http://www.w3.org/2000/svg" data-name="Layer 1" viewBox="0 0 64 64" id="add-post"><path d="M52.77 1a10.18 10.18 0 00-10.18 9.24 9.13 9.13 0 000 1A10.24 10.24 0 0052.77 21.46a9.18 9.18 0 001 0A10.23 10.23 0 0052.77 1zM56 12H54v2a1 1 0 01-2 0V12H50a1 1 0 010-2h2V8a1 1 0 012 0v2h2a1 1 0 010 2zM20.44 38.07L14 31.65 7.35 38.33a22.57 22.57 0 003.8 9zM15.18 20.76h2.88a.78.78 0 00.78-.78.8.8 0 00-1.1-.71 1 1 0 01-1.31-.48 1.38 1.38 0 10-1.25 2zM21 28.72h2.88a1.38 1.38 0 10-1.25-2 1 1 0 01-1.31.48A.78.78 0 1021 28.72z"></path><circle cx="35.5" cy="21.5" r="3.5"></circle><path d="M37 38.71l-7.11-7.12L12.43 49a22.64 22.64 0 0034.67-.15L37 38.78zM39.08 38l9.24 9.24a22.53 22.53 0 003.74-9.09l-6.57-6.57z"></path><path d="M56.07,23a12.4,12.4,0,0,1-2.13.4,11,11,0,0,1-1.17.06A12.25,12.25,0,0,1,40.54,11.23,11.15,11.15,0,0,1,40.6,10,12.27,12.27,0,0,1,41,7.93,28.72,28.72,0,1,0,56.07,23ZM35.5,16A5.5,5.5,0,1,1,30,21.5,5.51,5.51,0,0,1,35.5,16ZM21.24,25.18a3.38,3.38,0,1,1,2.6,5.55H21a2.78,2.78,0,0,1,0-5.56ZM15.18,16a3.4,3.4,0,0,1,2.6,1.22h.28a2.78,2.78,0,0,1,0,5.56H15.18a3.38,3.38,0,1,1,0-6.76ZM49.23,49.38h0a24.64,24.64,0,0,1-38.94.17l0,0,0,0a24.57,24.57,0,0,1-5-11.35,1,1,0,0,1,.28-.86l7.75-7.75a1,1,0,0,1,.71-.29h0a1,1,0,0,1,.71.29L21.9,36.7l7.24-7.24a1,1,0,0,1,.71-.29h0a1,1,0,0,1,.71.29l7.12,7.13,7.12-7.13a1,1,0,0,1,1.42,0l7.64,7.64a1,1,0,0,1,.28.85A24.52,24.52,0,0,1,49.23,49.38Z"></path></svg>